<?xml version="1.0" encoding="UTF-8" standalone="no"?>
<!-- Created with Inkscape (http://www.inkscape.org/) -->

<svg
   xmlns:dc="http://purl.org/dc/elements/1.1/"
   xmlns:cc="http://creativecommons.org/ns#"
   xmlns:rdf="http://www.w3.org/1999/02/22-rdf-syntax-ns#"
   xmlns:svg="http://www.w3.org/2000/svg"
   xmlns="http://www.w3.org/2000/svg"
   xmlns:sodipodi="http://sodipodi.sourceforge.net/DTD/sodipodi-0.dtd"
   xmlns:inkscape="http://www.inkscape.org/namespaces/inkscape"
   width="210mm"
   height="297mm"
   viewBox="0 0 210 297"
   version="1.1"
   id="svg8"
   inkscape:export-filename="C:\Users\Ajay\logo.png"
   inkscape:export-xdpi="396.08389"
   inkscape:export-ydpi="396.08389"
   inkscape:version="0.92.4 (5da689c313, 2019-01-14)"
   sodipodi:docname="logo.svg">
  <defs
     id="defs2" />
  <sodipodi:namedview
     id="base"
     pagecolor="#ffffff"
     bordercolor="#666666"
     borderopacity="1.0"
     inkscape:pageopacity="0.0"
     inkscape:pageshadow="2"
     inkscape:zoom="7.9195959"
     inkscape:cx="217.4146"
     inkscape:cy="602.34252"
     inkscape:document-units="mm"
     inkscape:current-layer="layer1"
     showgrid="false"
     inkscape:window-width="1920"
     inkscape:window-height="1001"
     inkscape:window-x="477"
     inkscape:window-y="961"
     inkscape:window-maximized="1" />
  <metadata
     id="metadata5">
    <rdf:RDF>
      <cc:Work
         rdf:about="">
        <dc:format>image/svg+xml</dc:format>
        <dc:type
           rdf:resource="http://purl.org/dc/dcmitype/StillImage" />
        <dc:title></dc:title>
      </cc:Work>
    </rdf:RDF>
  </metadata>
  <g
     inkscape:label="Layer 1"
     inkscape:groupmode="layer"
     id="layer1">
    <g
       id="g893"
       transform="matrix(0.00350016,0,0,0.00350016,59.399052,138.21229)"
       style="fill:#3ca343;fill-opacity:1">
      <g
         id="g833"
         style="fill:#3ca343;fill-opacity:1">
	<g
   id="g831"
   style="fill:#3ca343;fill-opacity:1">
		<g
   id="g829"
   style="fill:#3ca343;fill-opacity:1">
			<path
   id="path823"
   d="m 196.832,302.479 c -0.225,-22.92 -15.482,-66.853 -36.727,-88.086 -21.245,-21.234 -65.598,-32.276 -88.061,-36.708 -3.154,-0.623 -6.408,0.376 -8.661,2.644 -2.286,2.272 -3.28,5.521 -2.64,8.667 4.414,22.484 15.451,66.852 36.695,88.077 15.611,15.62 43.707,25.693 66.436,31.708 v 161.981 c 0,9.103 7.366,16.481 16.477,16.481 9.109,0 16.48,-7.38 16.48,-16.481 0.001,10e-4 0.063,-161.15 0.001,-168.283 z"
   inkscape:connector-curvature="0"
   style="fill:#3ca343;fill-opacity:1" />

			<path
   id="path825"
   d="M 262.751,124.978 C 262.621,102.057 247.27,58.126 226.024,36.89 204.78,15.655 160.426,4.614 137.96,0.182 c -3.154,-0.623 -6.404,0.376 -8.657,2.644 -2.286,2.272 -3.284,5.521 -2.64,8.666 4.409,22.486 15.451,66.853 36.695,88.079 15.607,15.621 43.707,25.694 66.43,31.708 v 339.483 c 0,9.103 7.372,16.481 16.482,16.481 9.108,0 16.479,-7.38 16.479,-16.481 0.002,10e-4 0.064,-333.86 0.002,-345.784 z"
   inkscape:connector-curvature="0"
   style="fill:#3ca343;fill-opacity:1" />

			<path
   id="path827"
   d="m 426.514,139.555 c 0.614,-3.146 -0.386,-6.395 -2.64,-8.666 -2.285,-2.268 -5.533,-3.266 -8.657,-2.644 -22.499,4.432 -66.854,15.473 -88.097,36.708 -21.24,21.235 -36.658,63.929 -36.688,88.086 -0.031,15.634 -0.031,217.723 -0.031,217.723 0,9.103 7.371,16.481 16.478,16.481 9.108,0 16.479,-7.38 16.479,-16.481 V 259.34 c 22.754,-6.013 50.854,-16.086 66.468,-31.707 21.237,-21.227 32.278,-65.593 36.688,-88.078 z"
   inkscape:connector-curvature="0"
   style="fill:#3ca343;fill-opacity:1" />

		</g>

	</g>

</g>
      <g
         id="g835"
         style="fill:#3ca343;fill-opacity:1">
</g>
      <g
         id="g837"
         style="fill:#3ca343;fill-opacity:1">
</g>
      <g
         id="g839"
         style="fill:#3ca343;fill-opacity:1">
</g>
      <g
         id="g841"
         style="fill:#3ca343;fill-opacity:1">
</g>
      <g
         id="g843"
         style="fill:#3ca343;fill-opacity:1">
</g>
      <g
         id="g845"
         style="fill:#3ca343;fill-opacity:1">
</g>
      <g
         id="g847"
         style="fill:#3ca343;fill-opacity:1">
</g>
      <g
         id="g849"
         style="fill:#3ca343;fill-opacity:1">
</g>
      <g
         id="g851"
         style="fill:#3ca343;fill-opacity:1">
</g>
      <g
         id="g853"
         style="fill:#3ca343;fill-opacity:1">
</g>
      <g
         id="g855"
         style="fill:#3ca343;fill-opacity:1">
</g>
      <g
         id="g857"
         style="fill:#3ca343;fill-opacity:1">
</g>
      <g
         id="g859"
         style="fill:#3ca343;fill-opacity:1">
</g>
      <g
         id="g861"
         style="fill:#3ca343;fill-opacity:1">
</g>
      <g
         id="g863"
         style="fill:#3ca343;fill-opacity:1">
</g>
    </g>
    <text
       xml:space="preserve"
       style="font-style:normal;font-variant:normal;font-weight:normal;font-stretch:normal;font-size:4.23333311px;line-height:1.25;font-family:'Arial Rounded MT Bold';-inkscape-font-specification:'Arial Rounded MT Bold, ';letter-spacing:0px;word-spacing:0px;fill:#000000;fill-opacity:1;stroke:none;stroke-width:0.26458332"
       x="56.696426"
       y="140.51785"
       id="text817"><tspan
         sodipodi:role="line"
         id="tspan815"
         x="56.696426"
         y="140.51785"
         style="stroke-width:0.26458332;fill:#ffffff">Jv</tspan></text>
    <circle
       style="fill:none;fill-opacity:1;stroke:#3ca343;stroke-width:0.443;stroke-miterlimit:4;stroke-dasharray:none;stroke-opacity:1"
       id="path821"
       cx="59.042538"
       cy="139.0027"
       r="2.984889" />
  </g>
</svg>
